<svg width="47" height="34" viewBox="0 0 47 34" fill="none" xmlns="http://www.w3.org/2000/svg">
<path id="Vector" d="M18.9333 24.2857L30.9874 17L18.9333 9.71429V24.2857ZM45.782 5.27C46.0839 6.41143 46.293 7.94143 46.4323 9.88429C46.5949 11.8271 46.6646 13.5029 46.6646 14.96L46.8039 17C46.8039 22.3186 46.4323 26.2286 45.782 28.73C45.2014 30.9157 43.8543 32.3243 41.764 32.9314C40.6724 33.2471 38.675 33.4657 35.6092 33.6114C32.5899 33.7814 29.8261 33.8543 27.2713 33.8543L23.5784 34C13.8469 34 7.78509 33.6114 5.39287 32.9314C3.30257 32.3243 1.95549 30.9157 1.37486 28.73C1.07293 27.5886 0.863897 26.0586 0.724544 24.1157C0.561965 22.1729 0.492289 20.4971 0.492289 19.04L0.352936 17C0.352936 11.6814 0.724544 7.77143 1.37486 5.27C1.95549 3.08429 3.30257 1.67571 5.39287 1.06857C6.48447 0.752857 8.48186 0.534285 11.5476 0.388571C14.5669 0.218571 17.3308 0.145714 19.8856 0.145714L23.5784 0C33.3099 0 39.3718 0.388572 41.764 1.06857C43.8543 1.67571 45.2014 3.08429 45.782 5.27Z" fill="black"/>
</svg>
