<svg width="45" height="34" viewBox="0 0 45 34" fill="none" xmlns="http://www.w3.org/2000/svg">
<path id="Vector" d="M20.7329 25.687V4.67986L13.4275 10.3384L11.2076 8.59229L22.3006 0L33.3936 8.59229L31.1769 10.3409L23.8683 4.67986V25.687H20.7329ZM5.41656 34C3.97428 34 2.77029 33.626 1.80459 32.878C0.8368 32.1284 0.352905 31.195 0.352905 30.0779V24.1934H3.48829V30.0779C3.48829 30.4502 3.68896 30.7927 4.09029 31.1051C4.49371 31.416 4.9358 31.5714 5.41656 31.5714H39.1847C39.6654 31.5714 40.1075 31.416 40.511 31.1051C40.9123 30.7927 41.1129 30.4502 41.1129 30.0779V24.1934H44.2483V30.0779C44.2483 31.195 43.7655 32.1276 42.7998 32.8756C41.832 33.6252 40.627 34 39.1847 34H5.41656Z" fill="#F8F8F8"/>
</svg>
